// New World Symphony - Exerpt from first movement, Adagio - Alegro molto
double BEATS[] = { 3, 8, 8, 3, 4, 8, 8, 8, 4, 8, 6, 16, 8, 8, 6, 16, 8, 8, 6, 16, 8, 8, 2, 3, 8, 8, 3, 4, 8, 8, 8, 4, 8, 6, 16, 8, 8, 6, 16, 8, 8, 6, 16, 8, 8, 3, 8, 8, 3, 3, 8, 8, 3, 3, 8, 8, 3, 3, 8, 8, 3, 8, 8, 8, 8, 8, 8, 8, 8, 8, 8, 8, 8, 8, 8, 8, 8, 16, 16, 16, 16, 16, 16, 16, 16, 16, 16, 16, 16, 16, 16, 16, 16, 16, 16, 16, 16, 16, 16, 16, 16, 16, 16, 16, 16, 16, 16, 16, 16, 16, 16, 16, 16, 16, 16, 16, 16, 16, 16, 16, 16, 16, 16, 16, 16, 8, 8, 8, 8, 8, 8, 8, 8 };
int MELODY[] = { NOTE_E3, NOTE_G3, NOTE_B3, NOTE_E4, NOTE_G4, NOTE_E4, NOTE_C4, NOTE_B3, NOTE_E3, NOTE_G3, NOTE_G3, NOTE_B3, NOTE_B3, NOTE_FS3, NOTE_G3, NOTE_B3, NOTE_B3, NOTE_FS3, NOTE_G3, NOTE_B3, NOTE_B3, NOTE_FS3, NOTE_G3, NOTE_E4, NOTE_G4, NOTE_B4, NOTE_E5, NOTE_G5, NOTE_E5, NOTE_C5, NOTE_D5, NOTE_G4, NOTE_B3, NOTE_B3, NOTE_D4, NOTE_D4, NOTE_A3, NOTE_B3, NOTE_D4, NOTE_D4, NOTE_A3, NOTE_B3, NOTE_D4, NOTE_D4, NOTE_A3, NOTE_B3, NOTE_DS4, NOTE_FS4, NOTE_B4, NOTE_C5, NOTE_A4, NOTE_FS4, NOTE_E4, NOTE_DS4, NOTE_FS4, NOTE_B4, NOTE_DS5, NOTE_E5, NOTE_C5, NOTE_B4, NOTE_A4, NOTE_C5, NOTE_A4, NOTE_G4, NOTE_FS4, NOTE_C5, NOTE_A4, NOTE_G4, NOTE_FS4, NOTE_E5, NOTE_C5, NOTE_B4, NOTE_A4, NOTE_E5, NOTE_C5, NOTE_B4, NOTE_A4, NOTE_E5, NOTE_C5, NOTE_B4, NOTE_A4, NOTE_A5, NOTE_E5, NOTE_D5, NOTE_C5, NOTE_C6, NOTE_B5, NOTE_A5, NOTE_E5, NOTE_E6,NOTE_C6, NOTE_B5, NOTE_A5, NOTE_FS6, NOTE_FS6, NOTE_E6, NOTE_E6, NOTE_FS6, NOTE_FS6, NOTE_E6, NOTE_E6, NOTE_FS6, NOTE_FS6, NOTE_E6, NOTE_E6, NOTE_FS6, NOTE_FS6, NOTE_E6, NOTE_E6, NOTE_G6, NOTE_G6, NOTE_E6, NOTE_E6, NOTE_G6, NOTE_G6, NOTE_E6, NOTE_E6, NOTE_G6, NOTE_G6, NOTE_E6, NOTE_E6, NOTE_G6, NOTE_G6, NOTE_E6, NOTE_E6, NOTE_B2, NOTE_CS3, NOTE_DS3, NOTE_E3, NOTE_F3, NOTE_FS3, NOTE_G3, NOTE_A3 };
double VELOCITY = 1.5;
int LENGTH = 133;
